<svg xmlns="http://www.w3.org/2000/svg" version="1.1" xmlns:xlink="http://www.w3.org/1999/xlink" xmlns:svgjs="http://svgjs.dev/svgjs" width="1500" height="1500" viewBox="0 0 1500 1500"><rect width="1500" height="1500" fill="#ffffff"></rect><g transform="matrix(0.6666666666666666,0,0,0.6666666666666666,249.78425655976667,249.78425655976673)"><svg viewBox="0 0 343 343" data-background-color="#ffffff" preserveAspectRatio="xMidYMid meet" height="1500" width="1500" xmlns="http://www.w3.org/2000/svg" xmlns:xlink="http://www.w3.org/1999/xlink"><g id="tight-bounds" transform="matrix(1,0,0,1,0.0740000000000407,0.07400000000001228)"><svg viewBox="0 0 342.85155851775386 342.85155851775386" height="342.85155851775386" width="342.85155851775386"><g><svg></svg></g><g><svg viewBox="0 0 342.85155851775386 342.85155851775386" height="342.85155851775386" width="342.85155851775386"><g><path d="M0 171.426c0-94.676 76.75-171.426 171.426-171.426 94.676 0 171.426 76.75 171.426 171.426 0 94.676-76.75 171.426-171.426 171.426-94.676 0-171.426-76.75-171.426-171.426zM171.426 339.099c92.603 0 167.673-75.07 167.673-167.673 0-92.603-75.07-167.673-167.673-167.673-92.603 0-167.673 75.07-167.673 167.673 0 92.603 75.07 167.673 167.673 167.673z" data-fill-palette-color="tertiary" fill="#0074d9" stroke="transparent"></path><ellipse rx="164.56874808852186" ry="164.56874808852186" cx="171.42577925887693" cy="171.42577925887693" fill="#0074d9" stroke="transparent" stroke-width="0" fill-opacity="1" data-fill-palette-color="tertiary"></ellipse></g><g transform="matrix(1,0,0,1,64.84655864529837,88.19379776078694)"><svg viewBox="0 0 213.1584412271571 166.46396299618" height="166.46396299618" width="213.1584412271571"><g><svg viewBox="0 0 213.1584412271571 166.46396299618" height="166.46396299618" width="213.1584412271571"><g><svg viewBox="0 0 213.1584412271571 166.46396299618" height="166.46396299618" width="213.1584412271571"><g transform="matrix(1,0,0,1,0,124.84876293593614)"><svg viewBox="0 0 213.1584412271571 41.61520006024384" height="41.61520006024384" width="213.1584412271571"><g id="textblocktransform"><svg viewBox="0 0 213.1584412271571 41.61520006024384" height="41.61520006024384" width="213.1584412271571" id="textblock"><g><svg viewBox="0 0 213.1584412271571 41.61520006024384" height="41.61520006024384" width="213.1584412271571"><g transform="matrix(1,0,0,1,0,0)"><svg width="213.1584412271571" viewBox="2.55 -36.7 245.32 47.9" height="41.61520006024384" data-palette-color="#ffffff"><path d="M25.8 11.2L25.8 11.2Q24.2 11.2 19.48 8.47 14.75 5.75 12.9 5.75L12.9 5.75Q9.8 9.15 8.4 9.15L8.4 9.15Q7.9 9.15 6.58 7.55 5.25 5.95 5.25 5.1 5.25 4.25 7 2.98 8.75 1.7 11.08 1.7 13.4 1.7 18.75 3.23 24.1 4.75 27.1 4.75L27.1 4.75Q28 4.75 28.38 4.38 28.75 4 29.13 3.4 29.5 2.8 29.83 2.27 30.15 1.75 30.2 1.75L30.2 1.75 31.8 2.25Q31.8 11.2 25.8 11.2ZM28.93-31.1Q30.25-29.1 30.9-26.88 31.55-24.65 31.55-21.95 31.55-19.25 30.95-16.2 30.35-13.15 28.95-10.1 27.55-7.05 25.55-4.7 23.55-2.35 20.5-0.88 17.45 0.6 13.8 0.6L13.8 0.6Q8.45 0.6 5.5-3.23 2.55-7.05 2.55-13.08 2.55-19.1 4.67-24.13 6.8-29.15 10.78-32.33 14.75-35.5 19.6-35.5L19.6-35.5Q22.8-35.5 25.2-34.3 27.6-33.1 28.93-31.1ZM15.33-2.8Q17.65-2.8 19.28-4.85 20.9-6.9 21.75-10.2L21.75-10.2Q23.45-16.7 23.45-23.55L23.45-23.55Q23.45-32.1 18.85-32.1L18.85-32.1Q16.2-32.1 14.3-29L14.3-29Q10.65-23.1 10.65-12.8L10.65-12.8Q10.65-7.15 11.3-5.8L11.3-5.8Q11.6-5.05 12.1-4.25L12.1-4.25Q13-2.8 15.33-2.8ZM33.7-3.78Q33.7-5.9 35-11.08 36.3-16.25 36.3-17.43 36.3-18.6 34.5-20.55L34.5-20.55 34.55-21.2Q37.95-21.9 43.5-21.9L43.5-21.9Q43.75-21.25 43.75-19.55 43.75-17.85 42.35-12.3 40.95-6.75 40.95-5.4 40.95-4.05 41.95-4.05L41.95-4.05Q43.4-4.05 45.3-5.1L45.3-5.1Q45.5-6.3 46.3-9.7L46.3-9.7Q48.1-17.7 48.1-21.15L48.1-21.15Q49.85-21.85 54.4-21.85L54.4-21.85 55.35-21.85Q55.35-19.5 53.95-12.68 52.55-5.85 52.55-4.67 52.55-3.5 53.05-3.5L53.05-3.5Q53.35-3.5 55.9-4.7L55.9-4.7 56.85-3.1Q52.4 0.6 49.05 0.6L49.05 0.6Q47.45 0.6 46.32-0.3 45.2-1.2 45.05-2.65L45.05-2.65Q41 0.65 37.7 0.65L37.7 0.65Q35.95 0.65 34.82-0.5 33.7-1.65 33.7-3.78ZM65.25 0.6L65.25 0.6Q61.8 0.6 59.85-1.83 57.9-4.25 57.9-8.6L57.9-8.6Q57.9-14.15 60.87-18.15 63.85-22.15 69.09-22.15L69.09-22.15 70.9-22.05Q71.75-22.5 72.8-22.5L72.8-22.5Q76.75-22.5 76.75-15.05L76.75-15.05Q78.8-15.15 80.9-15.6L80.9-15.6 81.7-15.8 82-13.85Q80.34-13.15 77.55-12.6L77.55-12.6 76.55-12.4Q75.59-7.15 72.7-3.28 69.8 0.6 65.25 0.6ZM67.95-3.7L67.95-3.7Q70.05-3.7 71.72-6.4 73.4-9.1 74.05-12.1L74.05-12.1Q68.7-12.1 68.7-16.1L68.7-16.1Q68.7-17.7 69.34-19.1L69.34-19.1 69.59-19.6Q69.4-19.7 69.09-19.7 68.8-19.7 68.65-19.6L68.65-19.6Q67.4-18.8 66.3-15.85 65.2-12.9 65.2-9.1L65.2-9.1Q65.2-3.7 67.95-3.7ZM89.49-21.55L94.34-21.55Q94.24-20.3 93.49-18.65L93.49-18.65Q91.59-18.85 89.89-18.85L89.89-18.85 88.99-18.85Q86.69-7.7 86.69-4.95L86.69-4.95Q86.69-3.5 87.32-3.5 87.94-3.5 90.64-4.75L90.64-4.75 91.54-3.1Q87.09 0.6 83.29 0.6L83.29 0.6Q81.54 0.6 80.42-0.5 79.29-1.6 79.29-3.43 79.29-5.25 79.72-7.55 80.14-9.85 80.89-13.18 81.64-16.5 81.99-18.55L81.99-18.55Q80.14-18.4 79.24-18.25L79.24-18.25Q79.14-18.85 79.14-19.88 79.14-20.9 79.29-21.55L79.29-21.55 82.44-21.55Q82.84-24.25 82.84-26.65L82.84-26.65 82.79-28.2 82.79-28.35Q86.69-29.7 90.14-29.7L90.14-29.7Q90.34-28.7 90.34-27.2 90.34-25.7 89.49-21.55L89.49-21.55ZM93.24-8.65L93.24-8.65Q93.24-14.9 97.02-18.53 100.79-22.15 105.59-22.15L105.59-22.15Q108.54-22.15 110.44-20.7 112.34-19.25 112.34-16.82 112.34-14.4 111.12-12.75 109.89-11.1 108.14-10.2L108.14-10.2Q104.59-8.45 101.64-8L101.64-8 100.44-7.85Q100.79-3.15 104.29-3.15L104.29-3.15Q105.49-3.15 106.84-3.75 108.19-4.35 108.94-4.95L108.94-4.95 109.69-5.55 110.89-3.95Q110.49-3.4 109.29-2.5 108.09-1.6 107.04-1L107.04-1Q104.14 0.6 100.69 0.6 97.24 0.6 95.24-1.85 93.24-4.3 93.24-8.65ZM100.39-10.3Q102.94-10.75 104.44-12.45 105.94-14.15 105.94-16.85 105.94-19.55 104.34-19.55L104.34-19.55Q102.44-19.55 101.42-16.32 100.39-13.1 100.39-10.3L100.39-10.3ZM138.39 0.6L138.39 0.6Q135.69 0.6 131.54-0.4L131.54-0.4Q128.94 0.3 126.69 0.3 124.44 0.3 124.09 0.15L124.09 0.15Q124.44-2.85 127.06-14.63 129.69-26.4 129.69-29.4L129.69-29.4Q129.69-30 129.04-31 128.39-32 127.74-32.7L127.74-32.7 127.09-33.4 127.24-34.15Q133.79-35.5 141.34-35.5L141.34-35.5Q145.49-35.5 148.16-33.52 150.84-31.55 150.84-28L150.84-28Q150.84-21.15 142.49-18.5L142.49-18.5Q145.84-18.1 148.11-15.98 150.39-13.85 150.39-10L150.39-10Q150.39-5.3 146.99-2.35 143.59 0.6 138.39 0.6ZM137.49-17.15L137.49-17.15Q136.09-17.15 134.99-16.9L134.99-16.9Q132.84-7.4 132.24-3.65L132.24-3.65Q133.49-2.8 136.16-2.8 138.84-2.8 140.74-4.93 142.64-7.05 142.64-11.05L142.64-11.05Q142.64-17.15 137.49-17.15ZM140.29-32.4L140.29-32.4Q138.39-32.4 138.04-32.05L138.04-32.05Q137.34-27.55 135.74-20.25L135.74-20.25Q137.74-20.25 138.54-20.5 139.34-20.75 139.96-21.15 140.59-21.55 141.39-22.4L141.39-22.4Q143.14-24.25 143.14-28.33 143.14-32.4 140.29-32.4ZM156.81 0.6Q155.08 0.6 153.96-0.55 152.83-1.7 152.83-3.78 152.83-5.85 155.31-17.03 157.78-28.2 157.78-33.15L157.78-33.15 157.48-35.35Q161.38-36.7 164.78-36.7L164.78-36.7Q165.28-36 165.28-34.25L165.28-34.25Q165.28-30.25 162.76-18.78 160.23-7.3 160.23-5.43 160.23-3.55 160.68-3.55L160.68-3.55 164.18-4.8 165.08-3.05Q163.38-1.7 160.96-0.55 158.53 0.6 156.81 0.6ZM173.23 0.6L173.23 0.6Q169.78 0.6 167.83-1.83 165.88-4.25 165.88-8.6L165.88-8.6Q165.88-14.15 168.86-18.15 171.83-22.15 177.08-22.15L177.08-22.15 178.88-22.05Q179.73-22.5 180.78-22.5L180.78-22.5Q184.73-22.5 184.73-15.05L184.73-15.05Q186.78-15.15 188.88-15.6L188.88-15.6 189.68-15.8 189.98-13.85Q188.33-13.15 185.53-12.6L185.53-12.6 184.53-12.4Q183.58-7.15 180.68-3.28 177.78 0.6 173.23 0.6ZM175.93-3.7L175.93-3.7Q178.03-3.7 179.71-6.4 181.38-9.1 182.03-12.1L182.03-12.1Q176.68-12.1 176.68-16.1L176.68-16.1Q176.68-17.7 177.33-19.1L177.33-19.1 177.58-19.6Q177.38-19.7 177.08-19.7 176.78-19.7 176.63-19.6L176.63-19.6Q175.38-18.8 174.28-15.85 173.18-12.9 173.18-9.1L173.18-9.1Q173.18-3.7 175.93-3.7ZM198.68-19.65L198.68-19.65Q196.68-19.65 195.48-16.32 194.28-13 194.28-9.2L194.28-9.2Q194.28-3.2 197.98-3.2L197.98-3.2Q199.18-3.2 200.53-3.78 201.88-4.35 202.68-4.9L202.68-4.9 203.43-5.5 204.58-3.95Q204.18-3.4 202.98-2.5 201.78-1.6 200.73-1 199.68-0.4 198.03 0.1 196.38 0.6 194.78 0.6L194.78 0.6Q190.88 0.6 188.93-1.95 186.98-4.5 186.98-8.8L186.98-8.8Q186.98-14.75 190.25-18.45 193.53-22.15 198.68-22.15L198.68-22.15Q202.03-22.15 204-20.63 205.98-19.1 205.98-16.88 205.98-14.65 204.58-13.05L204.58-13.05Q203.33-13.05 201.68-13.6 200.03-14.15 199.18-14.95L199.18-14.95 199.93-19.35Q199.48-19.65 198.68-19.65ZM212.68-33L212.68-33Q212.68-34.65 212.38-35.35L212.38-35.35Q216.28-36.7 219.73-36.7L219.73-36.7Q220.18-36.25 220.18-34.4L220.18-34.4Q220.18-30.25 217.43-18.5L217.43-18.5Q221.88-22.15 226.23-22.15L226.23-22.15Q228.18-22.15 229.53-20.95 230.88-19.75 230.88-17.45L230.88-17.45Q230.88-13.15 223.83-11.2L223.83-11.2Q225.48-6 226.73-4.15L226.73-4.15Q227.28-3.35 227.53-3.35L227.53-3.35Q228.08-3.35 229.83-4.2L229.83-4.2 230.38-4.45 231.18-2.75Q229.98-1.65 227.85-0.53 225.73 0.6 223.98 0.6L223.98 0.6Q220.08 0.6 218.53-6.5L218.53-6.5Q217.83-9.55 217.68-12.2L217.68-12.2Q220.88-12.95 222.45-14.03 224.03-15.1 224.03-16.78 224.03-18.45 222.33-18.45 220.63-18.45 216.63-15.05L216.63-15.05Q214.13-4.5 214.13-0.6L214.13-0.6Q211.38 0.2 206.98 0.2L206.98 0.2Q206.93-0.65 206.93-1.3L206.93-1.3Q206.93-3.45 209.8-16 212.68-28.55 212.68-33ZM247.87-6.55L247.87-6.55Q247.87-3.4 245.1-1.4 242.32 0.6 238.77 0.6 235.22 0.6 233.15-0.9 231.07-2.4 231.07-3.55L231.07-3.55Q231.07-4.25 232.82-5.83 234.57-7.4 235.77-7.75L235.77-7.75Q238.27-5.9 239.87-1.9L239.87-1.9Q241.72-2.05 241.72-3.65L241.72-3.65Q241.72-5.95 237.67-10.18 233.62-14.4 233.62-16.9 233.62-19.4 235.87-20.78 238.12-22.15 241.3-22.15 244.47-22.15 246.07-21.03 247.67-19.9 247.67-17.98 247.67-16.05 244.62-12.65L244.62-12.65Q244.97-12.3 245.52-11.73 246.07-11.15 246.97-9.55 247.87-7.95 247.87-6.55ZM243.07-14.4Q245.17-16.2 245.17-17.95 245.17-19.7 242.77-19.7L242.77-19.7Q241.62-19.7 240.87-19.23 240.12-18.75 240.12-18.15L240.12-18.15Q240.12-17.05 242.32-15.05L242.32-15.05 243.07-14.4Z" opacity="1" transform="matrix(1,0,0,1,0,0)" fill="#ffffff" class="wordmark-text-0" data-fill-palette-color="quaternary" id="text-0"></path></svg></g></svg></g></svg></g></svg></g><g transform="matrix(1,0,0,1,51.10538260358247,0)"><svg viewBox="0 0 110.94767601999217 115.024412966514" height="115.024412966514" width="110.94767601999217"><g><svg xmlns="http://www.w3.org/2000/svg" xmlns:xlink="http://www.w3.org/1999/xlink" version="1.0" x="0" y="0" viewBox="2 1 47 48.727" enable-background="new 0 0 50 50" xml:space="preserve" height="115.024412966514" width="110.94767601999217" class="icon-icon-0" data-fill-palette-color="quaternary" id="icon-0"><g fill="#ffffff" data-fill-palette-color="quaternary"><path fill="#ffffff" d="M42.65 1H8.681C5.232 1 2 3.917 2 7.372v19.669C2 30.492 5.232 34 8.681 34h4.713L4.571 49.727 26.6 34H42.65c3.453 0 6.35-3.508 6.35-6.959V7.372C49 3.917 46.104 1 42.65 1zM25 16.123c0 3.39-0.758 5.354-2.662 6.959C20.912 24.272 19 24.986 17 25.105v-2.736C20 21.774 21.723 20 21.604 17H17v-7h8V16.123zM35 16.123c0 3.39-0.758 5.354-2.662 6.959C30.91 24.272 29 24.986 27 25.105v-2.736C30 21.774 31.861 20 31.742 17H27v-7h8V16.123z" data-fill-palette-color="quaternary"></path></g></svg></g></svg></g><g></g></svg></g></svg></g></svg></g></svg></g><defs></defs></svg><rect width="342.85155851775386" height="342.85155851775386" fill="none" stroke="none" visibility="hidden"></rect></g></svg></g></svg>